PathFileType	4	(X/Y/Z)	C:\Users\WrightLab\Desktop\Jo\P1.2Trial8.trc
DataRate	CameraRate	NumFrames	NumMarkers	Units	OrigDataRate	OrigDataStartFrame	OrigNumFrames
100.00	100.00	       15	19	mm	100.00	355	       946
Frame#	Time	Headset_Front			Headset_Back			Headset_Left			Headset_Right			Left_Shoulder			Right_Shoulder			Sternum			C7			Left Elbow			Right Elbow			Left Wrist			Right Wrist			Left ASIS			Right ASIS			S2			Left Knee			Right Knee			Left Ankle			Right Ankle			
		X1	Y1	Z1	X2	Y2	Z2	X3	Y3	Z3	X4	Y4	Z4	X5	Y5	Z5	X6	Y6	Z6	X7	Y7	Z7	X8	Y8	Z8	X9	Y9	Z9	X10	Y10	Z10	X11	Y11	Z11	X12	Y12	Z12	X13	Y13	Z13	X14	Y14	Z14	X15	Y15	Z15	X16	Y16	Z16	X17	Y17	Z17	X18	Y18	Z18	X19	Y19	Z19	

355	3.540	-794.50482	1427.49719	1047.22620	-948.06085	1520.81494	1191.50598	-1022.14551	1447.38171	1056.02795				-1144.60828	1242.69983	1148.90430				-934.92432	1176.46326	1035.75769	-935.49231	1314.83496	1260.84998	-1209.50854	956.97015	1164.64722	-648.84851	1005.01398	1225.55029	-923.40057	922.47028	1354.07349	-568.07196	759.36060	1170.08154	-1074.17908	869.52167	1075.43945	-796.76398	851.32086	1053.39246	-1147.27991	869.71210	961.81976				-819.09344	449.44574	1025.16321				-834.42926	131.45674	969.25781	
356	3.550	-791.46808	1428.59937	1039.26038	-945.77972	1522.01184	1183.31873	-1019.31281	1448.72437	1047.57996				-1141.70166	1243.98206	1139.21179				-931.51947	1178.12012	1026.29883	-933.00287	1315.60071	1252.01355	-1206.09680	958.34338	1153.36365	-646.80847	1005.45599	1216.84009	-921.91870	922.75098	1343.02698	-566.69171	759.88983	1160.70776	-1071.68188	871.26526	1065.72644	-794.42419	852.88495	1043.23401	-1144.62830	870.52252	951.20367				-819.35950	450.79977	1014.83185				-834.14276	129.29561	964.20062	
357	3.560	-788.72449	1430.06677	1030.88782	-942.62048	1522.64001	1175.19946	-1016.42871	1449.99854	1039.14465				-1138.90613	1245.60986	1129.40723				-928.15198	1180.11890	1016.86420	-930.73236	1316.50818	1243.25854	-1202.82507	960.11102	1142.50977	-644.46716	1006.71423	1208.83118	-919.92072	922.77820	1332.84607	-565.45007	760.70807	1150.82776	-1068.42712	873.51233	1051.97583	-791.42981	854.76825	1032.74951	-1142.05835	871.64355	940.62079				-818.12091	452.08902	1006.40381				-832.74042	127.16984	961.16620	
358	3.570	-785.62787	1431.53699	1022.75494	-940.16406	1523.53418	1167.32397	-1013.57953	1451.43652	1030.83337				-1136.32568	1247.36731	1119.51245				-924.63940	1181.90588	1007.47723	-928.14185	1317.20654	1234.51660	-1199.62695	961.85272	1131.94666	-642.58368	1007.28412	1198.77380	-918.12659	923.15363	1322.31091	-563.51019	761.35510	1142.13708	-1065.55811	874.38995	1043.60059	-788.59766	857.16846	1023.59467	-1139.53821	873.02338	930.06915				-816.41034	453.50101	996.60815				-831.69495	125.75567	958.21820	
359	3.580	-782.95020	1432.84424	1015.24078	-937.27496	1523.95605	1159.60156	-1010.65393	1452.67126	1022.60907				-1133.63940	1249.15125	1109.71094				-921.29102	1183.76831	998.23828	-925.90228	1318.08069	1225.84167	-1196.19958	963.41620	1121.47595	-640.12616	1007.99408	1190.18420	-917.28473	924.37238	1311.84875	-564.10156	762.03857	1132.86353	-1061.85999	877.65991	1030.34583	-785.11975	859.29492	1014.32837	-1136.82495	874.96783	919.59784				-814.46228	456.27832	986.49170				-831.27960	124.06489	956.89960	
360	3.590	-779.96552	1434.25989	1006.93713	-934.47504	1524.41492	1151.94397	-1007.78375	1453.88342	1014.51605				-1130.87903	1250.81116	1099.93445				-917.93970	1185.52917	989.18579	-923.92932	1318.95386	1217.36658	-1193.11536	964.92334	1111.17078	-638.52991	1009.94257	1181.74207	-915.76959	924.78595	1302.11670	-561.29413	764.61096	1121.64563	-1058.16748	879.73608	1018.80713	-782.26575	861.05127	1004.67523	-1134.11340	876.44843	908.86914				-811.92322	457.31232	977.89948				-830.99854	124.49368	950.71509	
361	3.600	-777.12659	1435.27515	999.56165	-931.90503	1524.96228	1144.44727	-1004.96124	1455.23181	1006.45703				-1128.42004	1252.40942	1090.28564				-914.58514	1187.21838	980.32837	-921.62915	1319.41797	1208.95593	-1190.41821	966.43060	1100.94910	-635.68109	1010.30725	1172.51929	-914.12567	925.32391	1292.06604	-559.40125	765.38147	1111.28748	-1054.13220	882.34851	1006.69611	-778.71680	863.08105	994.28662	-1131.78760	878.66882	898.43939				-810.38672	458.47440	969.51965				-831.44659	122.64831	950.02826	
362	3.610	-774.28271	1436.47449	991.63953	-928.91693	1525.42065	1136.82642	-1002.11902	1456.52515	998.42633	-847.23193	1393.21729	866.27350	-1126.12781	1253.89014	1080.82910				-911.39313	1188.76770	971.79065	-919.77777	1320.09485	1200.68542	-1188.07703	967.98236	1090.76965	-633.73108	1012.04340	1163.59265	-912.75757	925.77747	1282.19177	-557.67529	767.28333	1101.95520	-1050.31531	883.19531	997.24030	-775.25244	864.92426	986.16150	-1129.24194	881.01147	887.65088				-808.39703	458.71106	961.74152				-831.90405	121.44888	947.72986	
363	3.620	-771.60358	1437.43604	984.69324	-926.82837	1526.35754	1129.35229	-999.45996	1457.99805	990.41394	-844.16010	1395.10974	858.37170	-1123.62415	1255.16187	1071.46753				-908.24097	1190.28333	963.34900	-917.77722	1320.48279	1192.54980	-1186.06848	969.38531	1080.51563	-631.40002	1014.03955	1156.27966	-910.85706	925.51025	1272.71094	-556.48743	767.95465	1090.77979	-1046.28247	883.93164	985.77350	-771.21112	866.22900	977.32867	-1126.66833	883.66278	877.00500				-806.02625	459.83380	955.50098				-832.12207	120.13610	944.86652	
364	3.630				-924.08008	1526.94983	1121.80713	-996.73248	1459.36279	982.45374	-841.07617	1396.57825	850.49323	-1121.44751	1256.28467	1062.41443				-905.43646	1191.63794	954.94299	-916.26569	1321.21887	1184.41956	-1184.09570	970.52545	1070.23706	-629.75317	1013.95294	1146.86340	-909.57471	926.08209	1263.35681	-554.80347	769.14783	1079.48059	-1042.43738	885.33600	974.80109	-766.75281	867.66602	967.69580	-1123.86462	885.70410	865.65936				-803.25500	459.76413	948.55164				-832.76605	119.43438	943.14136	
365	3.640	-766.35614	1439.54468	969.84698	-922.18469	1527.85645	1114.40393	-994.11847	1460.77747	974.46912	-838.19476	1398.09766	843.11359	-1119.39453	1257.09314	1053.51208	-695.05725	1260.47449	1068.75867	-902.75336	1192.77002	946.48273	-914.48059	1321.66699	1176.31738	-1182.09863	971.32825	1059.83154	-625.66937	1014.94830	1138.96692	-907.92194	926.57458	1254.15222	-552.71039	769.95850	1069.01477	-1038.81274	885.59747	963.42279	-762.75842	868.34229	959.50037	-1121.29626	888.16913	854.35663				-800.00940	459.50256	944.63873				-833.20380	117.90437	941.32666	
366	3.650				-919.75165	1528.39282	1106.96277	-991.49347	1462.00403	966.54144	-835.05377	1399.56335	835.49811	-1117.48132	1257.84265	1044.81873	-692.81396	1261.80359	1060.32263	-900.25879	1193.77283	938.11737	-912.70599	1321.98987	1168.35803	-1180.03833	971.72211	1049.24878	-623.38068	1015.77478	1130.05933	-906.25684	926.66016	1245.50146	-550.43060	770.70380	1057.89844	-1035.53711	885.15588	954.19604	-758.91980	869.15985	951.16418	-1119.14172	890.52563	843.41547				-797.48425	457.76883	941.56396				-833.60767	116.94247	939.65131	
367	3.660	-761.19934	1441.00781	954.81134	-917.92633	1529.15442	1099.54468	-989.14490	1463.23389	958.59021	-832.21802	1400.99390	827.99310	-1115.33765	1258.28015	1036.29041	-691.93573	1262.91895	1054.17957	-898.02338	1194.70703	929.86090	-911.06177	1322.42493	1160.37732	-1177.96252	971.90875	1038.46143	-620.39960	1016.96539	1121.65210	-904.47510	926.87384	1236.40332	-548.69543	771.28650	1047.98511	-1032.55847	886.95886	942.80536	-754.36084	870.09119	942.61053	-1116.32263	893.08319	831.98700				-794.54120	457.22610	937.84296				-833.64337	116.97787	935.95911	
368	3.670				-915.62415	1529.73792	1092.04846	-986.52289	1464.26355	950.69464	-829.47504	1401.94324	820.26752	-1113.41211	1258.60327	1027.93762	-689.81519	1263.58704	1047.12732	-895.81158	1195.63745	921.67029	-909.03925	1322.71558	1152.44971	-1176.26965	972.57727	1027.74438	-617.71863	1016.58887	1112.11743	-902.83423	927.02606	1227.51270	-546.32666	772.58063	1036.53577	-1029.73901	886.34570	933.09967	-749.67163	870.56067	933.73730	-1114.13513	895.26233	821.07819				-791.38342	455.48230	935.88220							
369	3.680	-756.43109	1442.25232	940.99695	-913.95190	1530.56555	1084.67029	-984.24261	1465.41504	942.86609	-826.68372	1403.33398	813.20691	-1111.46143	1259.03577	1019.64081	-688.24347	1263.62024	1040.52820	-893.86951	1196.33240	913.55713	-907.40326	1323.03088	1144.66406	-1174.93250	973.37457	1017.07355	-615.03381	1018.04187	1104.89465	-900.58936	926.60181	1218.63770	-544.33472	772.83832	1025.09082	-1026.91736	885.58124	923.39319	-745.47662	871.87927	926.17389	-1111.62341	897.41809	809.77692				-787.70435	454.60980	932.55896							
